<?xml version="1.0" standalone="no"?>
<!DOCTYPE svg PUBLIC "-//W3C//DTD SVG 20010904//EN"
 "http://www.w3.org/TR/2001/REC-SVG-20010904/DTD/svg10.dtd">
<svg version="1.0" xmlns="http://www.w3.org/2000/svg"
 width="128.000000pt" height="128.000000pt" viewBox="0 0 128.000000 128.000000"
 preserveAspectRatio="xMidYMid meet">

<g transform="translate(0.000000,128.000000) scale(0.100000,-0.100000)"
fill="#000000" stroke="none">
<path d="M375 1134 c-137 -80 -253 -150 -257 -157 -4 -7 -5 -106 -1 -222 5
-175 9 -212 22 -222 15 -12 14 -14 -2 -27 -15 -12 -17 -27 -15 -111 l3 -97
255 -149 c140 -82 259 -149 264 -149 16 0 515 292 520 306 3 7 2 108 -1 223
-6 201 -7 211 -27 217 -20 7 -20 7 2 25 21 17 23 25 20 115 l-3 96 -255 149
c-140 82 -259 148 -265 148 -5 0 -122 -65 -260 -145z m530 -62 c99 -58 181
-106 183 -107 5 -4 -434 -255 -446 -255 -6 0 -110 58 -232 129 -151 88 -217
132 -208 137 7 5 107 64 223 131 l210 121 45 -25 c25 -15 126 -73 225 -131z
m215 -204 l0 -53 -145 -83 -145 -84 0 -54 c0 -39 4 -56 15 -60 8 -3 69 26 138
65 67 39 126 71 130 71 4 0 7 -78 7 -173 l0 -173 -216 -124 c-120 -69 -221
-127 -225 -128 -5 -2 -9 20 -9 50 l1 53 139 80 140 80 0 56 c0 37 -5 59 -13
62 -7 2 -70 -28 -140 -69 l-127 -73 0 177 0 177 188 107 c103 60 201 117 217
127 17 11 33 20 38 20 4 1 7 -23 7 -51z m-36 -146 c5 -9 -194 -125 -202 -117
-9 9 14 26 100 77 87 50 94 53 102 40z m-651 -359 c110 -64 205 -116 212 -116
6 0 55 25 108 56 93 56 117 65 117 49 0 -9 -210 -132 -226 -132 -18 0 -454
257 -447 264 10 10 17 6 236 -121z"/>
</g>
</svg>
